<?xml version="1.0" encoding="iso-8859-1"?>
<!-- Generator: Adobe Illustrator 19.0.0, SVG Export Plug-In . SVG Version: 6.00 Build 0)  -->
<svg version="1.1" id="Capa_1" xmlns="http://www.w3.org/2000/svg" xmlns:xlink="http://www.w3.org/1999/xlink" x="0px" y="0px"
	 viewBox="0 0 512 512" style="enable-background:new 0 0 512 512;" xml:space="preserve">
<path style="fill:#93BF00;" d="M433.75,437v1.5l-10.8,5.099L405.25,452h-76.5c-173.401,0-314.099-140.4-315-313.5l12.001-7.2
	l15.599-9.3h77.401C292.75,122,433.75,263,433.75,437z"/>
<path style="fill:#A8D32A;" d="M422.951,443.599L405.25,452h-76.5c-173.401,0-314.099-140.4-315-313.5l12.001-7.2L422.951,443.599z"
	/>
<path style="fill:#E7E7E7;" d="M463.75,137c0-2.701,0-5.7-0.3-8.401l34.8-20.099l-45-77.999l-35.101,20.4
	c-4.799-3.3-9.3-6-14.399-8.401V0h-90v42.499c-5.099,2.401-9.6,5.101-14.399,8.401L264.25,30.5l-45,77.999l34.801,20.099
	c-0.3,2.701-0.3,5.7-0.3,8.401s0,5.7,0.3,8.401l-34.802,20.1l45,77.999l35.101-20.4c4.799,3.3,9.3,6,14.399,8.401V272h90v-40.499
	c5.099-2.401,9.6-5.101,14.399-8.401l35.101,20.4l45-77.999l-34.801-20.099C463.75,142.7,463.75,139.701,463.75,137z M358.75,182
	c-24.901,0-45-20.099-45-45s20.099-45,45-45s45,20.099,45,45S383.651,182,358.75,182z"/>
<path style="fill:#D3D3D8;" d="M463.45,145.401L498.25,165.5l-45,77.999l-35.101-20.4c-4.799,3.3-9.3,6-14.399,8.401V272h-45v-90
	c24.901,0,45-20.099,45-45s-20.099-45-45-45V0h45v42.499c5.099,2.401,9.6,5.101,14.399,8.401l35.101-20.4l45,77.999l-34.801,20.099
	c0.3,2.701,0.3,5.7,0.3,8.401S463.75,142.7,463.45,145.401z"/>
<path style="fill:#81A713;" d="M463.75,512h-30c0-23.401-10.499-45.3-28.5-60c-0.599-0.3-0.899-0.601-1.199-0.901L13.751,138.5V122
	H41.35l381.301,305.4c4.2,3.3,7.5,7.2,11.1,11.1c7.8,8.101,14.399,17.401,19.2,27.599C459.849,480.2,463.75,495.801,463.75,512z"/>
<path style="fill:#93BF00;" d="M463.75,512h-30c0-23.401-10.499-45.3-28.5-60c-0.599-0.3-0.899-0.601-1.199-0.901L13.751,138.5V122
	l420,330l19.2,14.099C459.849,480.2,463.75,495.801,463.75,512z"/>
<g>
</g>
<g>
</g>
<g>
</g>
<g>
</g>
<g>
</g>
<g>
</g>
<g>
</g>
<g>
</g>
<g>
</g>
<g>
</g>
<g>
</g>
<g>
</g>
<g>
</g>
<g>
</g>
<g>
</g>
</svg>
